<?xml version="1.0" encoding="utf-8"?>
<!-- Generator: Adobe Illustrator 24.0.2, SVG Export Plug-In . SVG Version: 6.00 Build 0)  -->
<svg version="1.1" id="Layer_1" xmlns="http://www.w3.org/2000/svg" xmlns:xlink="http://www.w3.org/1999/xlink" x="0px" y="0px"
	 viewBox="0 0 512 512" style="enable-background:new 0 0 512 512;" xml:space="preserve">
<style type="text/css">
	.st0{fill:#C1E8F7;}
	.st1{fill:#A84007;}
	.st2{fill:#F4CCAF;}
	.st3{fill:#FCD4B5;}
	.st4{fill:#8A1116;}
	.st5{fill:#483F38;}
	.st6{fill:#701319;}
</style>
<circle id="XMLID_8258_" class="st0" cx="256.0888" cy="255.7101" r="249.4084"/>
<g id="XMLID_7255_">
	<path id="XMLID_7265_" class="st1" d="M218.8826,279.6243c-14.9975-14.4804-14.868-51.0693-18.4882-48.4831
		c-8.2748,5.5577-13.5759-10.9908-14.6099-20.817c-0.7996-7.595,1.7024-11.7366,4.7881-11.3402
		c1.281,1.4127,3.0368,0.4725,4.9168,4.1925c1.5214,3.0097,2.9882-11.737,16.6924-23.1135l16.5006-14.4007
		c13.7046,1.5521,18.6959,5.4275,42.7596,18.0788c20.2351,10.6377,45.9719,19.2055,49.6021,22.1299
		c1.6044,1.2933,2.8439-4.7844,9.004-6.5773c0.0664-0.02,0.1328-0.1758,0.1992-0.2789c2.6923,0.382,4.711,4.3972,3.9833,11.3094
		c-1.0344,9.8262-6.3354,26.3747-14.6099,20.817c-3.6202-2.5862-3.4908,34.0027-18.4886,48.4831
		c-1.0759,1.0396-2.1752,2.0554-3.2994,3.0424c-0.8824,0.7751-1.8281,1.4757-2.7427,2.2149
		c0.0319,7.7382,0.876,19.1562,7.0349,29.8391h33.5728c0,0,43.8901-20.0367,21.4234-38.3635
		c-25.8532-21.0904,3.2019-18.1006,1.975-41.2138c-0.7807-14.703-17.6118-19.1291-14.9044-35.9621
		c4.0612-25.252-4.8326-67.9527-35.9291-75.1909c-53.4908-35.1906-104.6168-13.0518-122.6288,23.0916
		c-21.0974,42.3346,8.6305,51.0144-16.9902,70.5548c-8.438,6.4363-11.4225,16.6064-8.0486,23.1602
		c6.5528,12.7295,21.6381,21.8892,10.5461,29.9207c-16.8022,12.1698-9.5076,28.4684,14.6188,44.0028h32.2299
		c6.1255-10.6251,6.993-21.9708,7.0334-29.7071C222.9,283.3042,220.8419,281.5147,218.8826,279.6243z"/>
	<path id="XMLID_7264_" class="st2" d="M217.2195,387.2802c9.4119,10.786,27.8946,15.2374,43.1402,15.138
		c15.2444-0.0979,34.1136-5.2484,42.5145-15.138c20.1257-23.6943,20.6464-47.8508,20.5066-53.0246
		c-1.3582-0.8185-2.8221-1.6986-4.421-2.6585c-7.9992-4.7974-13.2836-10.7137-16.8348-16.8764
		c-6.1589-10.683-7.003-22.101-7.0349-29.8391c-2.6993,2.1819-5.4924,4.2466-8.4877,5.9995
		c-3.4192,2.0031-7.0383,3.6654-10.8124,4.879c-3.4299,1.1008-6.9737,1.8255-10.5576,2.1875
		c-4.4514,0.451-9.0214,0.3153-13.4431-0.3876c-3.6298-0.576-7.1926-1.5447-10.6136-2.8884
		c-3.8387-1.5084-7.4855-3.4752-10.9147-5.7625c-1.8114-1.2079-3.5416-2.5316-5.2376-3.8954
		c-0.0404,7.7363-0.9079,19.082-7.0334,29.7071c-3.5523,6.1626-8.8363,12.079-16.8356,16.8764
		c-1.6237,0.9743-3.1043,1.8922-4.4688,2.7653C196.4518,339.8026,196.7174,363.7813,217.2195,387.2802z"/>
	<path id="XMLID_7263_" class="st3" d="M301.1321,279.6243c14.9978-14.4804,14.8684-51.0693,18.4886-48.4831
		c8.2744,5.5577,13.5755-10.9908,14.6099-20.817c0.7277-6.9122-1.291-10.9274-3.9833-11.3094
		c-0.0664,0.1031-0.1328,0.2589-0.1992,0.2789c-6.16,1.7928-7.3995,7.8705-9.004,6.5773
		c-3.6302-2.9244-29.367-11.4922-49.6021-22.1299c-24.0637-12.6512-29.0551-16.5266-42.7596-18.0788l-16.5006,14.4007
		c-13.7042,11.3765-15.171,26.1232-16.6924,23.1135c-1.88-3.72-3.6358-2.7798-4.9168-4.1925
		c-3.0858-0.3965-5.5878,3.7452-4.7881,11.3402c1.034,9.8262,6.3351,26.3747,14.6099,20.817
		c3.6202-2.5862,3.4908,34.0027,18.4882,48.4831c1.9594,1.8904,4.0174,3.6799,6.1407,5.3893
		c1.6961,1.3637,3.4262,2.6874,5.2376,3.8954c3.4292,2.2873,7.0761,4.2541,10.9147,5.7625
		c3.421,1.3437,6.9838,2.3125,10.6136,2.8884c4.4217,0.7029,8.9917,0.8386,13.4431,0.3876
		c3.5839-0.362,7.1277-1.0867,10.5576-2.1875c3.7741-1.2135,7.3932-2.8758,10.8124-4.879c2.9952-1.7528,5.7884-3.8175,8.4877-5.9995
		c0.9146-0.7392,1.8604-1.4398,2.7427-2.2149C298.9569,281.6797,300.0562,280.6639,301.1321,279.6243z"/>
	<path id="XMLID_7262_" class="st4" d="M358.3281,468.4275c1.0752-18.2616,10.6848-113.8259,27.6709-113.8259
		c0.5037,0,1.0129,0.0779,1.5229,0.1647c-16.0797-6.2605-56.6374-18.6455-64.1867-21.5666c0,0,0.0278,0.3946,0.0456,1.0559
		c0.1398,5.1739-0.3809,29.3303-20.5066,53.0246c-8.4009,9.8896-27.27,15.0401-42.5145,15.138
		c-15.2456,0.0994-33.7282-4.352-43.1402-15.138c-20.5021-23.4989-20.7677-47.4777-20.534-52.9178
		c0.0319-0.7462,0.0734-1.1627,0.0734-1.1627c-7.7708,3.006-50.3509,15.4585-65.3153,21.3296
		c0.6019-0.1198,1.2009-0.194,1.7947-0.194c16.9861,0,26.595,95.5643,27.6709,113.8263c0.257,4.3623,0.8438,10.8476,0.6828,18.3755
		c3.5801,1.4668,7.1966,2.8595,10.8576,4.1635c0.8664-24.3575,0.8478-43.3508,1.8867-44.7379l13.867,0.0779l-13.8659-0.0998
		c0,0-1.0678-74.8233-3.1963-104.2189l13.9067-4.5344c2.917,14.6036,3.8795,108.8312,3.8806,108.8568l70.8029,0.3946l70.7343-0.3946
		c0-0.0163,0.9995-94.4706,3.9169-109.076l13.8703,4.5255c-2.1289,29.3956-3.1963,104.447-3.1963,104.447l-14.101,0.1016
		l14.1693-0.0797c0.9999,1.3348,1.0218,18.9845,1.7943,42.0197c3.6065-1.4108,7.1707-2.9011,10.6937-4.4732
		C357.6479,477.3899,358.1089,472.1419,358.3281,468.4275z"/>
	<path id="XMLID_7261_" class="st4" d="M394.0212,357.8995c-0.1784-0.2374-0.6824-0.5578-1.4097-0.9365
		c0.5063,0.3442,1.0121,0.7029,1.5191,1.1194C394.0921,358.0259,394.0609,357.9536,394.0212,357.8995z"/>
	<path id="XMLID_7260_" class="st5" d="M330.9557,446.0424l-0.49,0.0037v-0.0018l-70.7343,0.3946l-70.8029-0.3946v0.0018
		l-0.7251-0.0056l-13.867-0.0779c-1.0388,1.3871-1.0203,20.3805-1.8867,44.7379c26.1507,9.3084,54.2934,14.417,83.6389,14.417
		c32.0607,0,62.6747-6.1155,90.8307-17.1353c-0.7726-23.0352-0.7944-40.6849-1.7943-42.0197L330.9557,446.0424z"/>
	<path id="XMLID_7259_" d="M188.9285,446.0443c-0.0011-0.0256-0.9636-94.2532-3.8806-108.8568l-13.9067,4.5344
		c2.1285,29.3956,3.1963,104.2189,3.1963,104.2189l13.8659,0.0998l0.7251,0.0056V446.0443z"/>
	<path id="XMLID_7258_" d="M330.9557,446.0424l14.101-0.1016c0,0,1.0674-75.0514,3.1963-104.447l-13.8703-4.5255
		c-2.9174,14.6054-3.9169,109.0597-3.9169,109.076v0.0018L330.9557,446.0424z"/>
	<path id="XMLID_7257_" class="st6" d="M160.9092,468.1616c-1.0759-18.262-10.6848-113.8263-27.6709-113.8263
		c-0.5938,0-1.1928,0.0742-1.7947,0.194c-15.0052,2.9771-32.3344,42.5175-36.9316,91.0985
		c19.9117,16.9557,42.5048,30.8368,67.08,40.9093C161.753,479.0092,161.1663,472.5239,160.9092,468.1616z"/>
	<path id="XMLID_7256_" class="st6" d="M394.1306,358.0823c-0.507-0.4165-1.0129-0.7752-1.5191-1.1194
		c-1.7131-1.1627-3.4166-1.9141-5.0897-2.1967c-0.5099-0.0868-1.0192-0.1647-1.5229-0.1647
		c-16.9861,0-26.5957,95.5643-27.6709,113.8259c-0.2192,3.7144-0.6802,8.9624-0.7151,15.0816
		c24.4939-10.9326,46.9298-25.6448,66.4884-43.4847C419.4991,400.7956,406.7389,368.4174,394.1306,358.0823z"/>
</g>
</svg>
